<?xml version="1.0" standalone="no"?>
<!DOCTYPE svg PUBLIC "-//W3C//DTD SVG 20010904//EN"
 "http://www.w3.org/TR/2001/REC-SVG-20010904/DTD/svg10.dtd">
<svg version="1.0" xmlns="http://www.w3.org/2000/svg"
 width="1280.000000pt" height="720.000000pt" viewBox="0 0 1280.000000 720.000000"
 preserveAspectRatio="xMidYMid meet">

<g transform="translate(0.000000,720.000000) scale(0.100000,-0.100000)"
fill="#000000" stroke="none">
<path d="M0 5320 l0 -1880 1962 -2 1962 -3 17 -130 c40 -309 107 -521 259
-825 133 -265 233 -404 450 -620 384 -385 840 -621 1370 -709 313 -52 538 -53
770 -3 80 17 187 38 237 47 125 21 202 46 368 117 199 86 321 146 390 192 279
185 538 442 723 718 60 89 177 308 223 418 93 224 163 492 187 725 l7 70 1938
3 1937 2 0 1880 0 1880 -6400 0 -6400 0 0 -1880z"/>
</g>
</svg>
